<svg width="1280" height="640" viewBox="0 0 1280 640" xmlns="http://www.w3.org/2000/svg">
  <defs>
    <linearGradient id="bg" x1="0" y1="0" x2="0" y2="1">
      <stop offset="0" stop-color="#1E1B16"/>
      <stop offset="1" stop-color="#131110"/>
    </linearGradient>
    <radialGradient id="glow" cx="0.89" cy="0.49" r="0.62">
      <stop offset="0" stop-color="#EEA93B" stop-opacity="0.17"/>
      <stop offset="1" stop-color="#EEA93B" stop-opacity="0"/>
    </radialGradient>
    <rect id="link" x="-30" y="-30" width="60" height="60" rx="16" fill="none" stroke-width="12"/>
    <clipPath id="weave">
      <rect x="24" y="-10" width="12" height="12"/>
    </clipPath>
  </defs>
  <rect width="1280" height="640" fill="url(#bg)"/>
  <rect width="1280" height="640" fill="url(#glow)"/>
  <rect x="0.5" y="0.5" width="1279" height="639" fill="none" stroke="#FFFFFF" stroke-opacity="0.07"/>
  <g transform="translate(-30 730) rotate(45) scale(3.23)" opacity="0.05">
    <g transform="translate(-17 17)">
      <use href="#link" stroke="#EEA93B"/>
    </g>
    <g transform="translate(17 -17)">
      <use href="#link" stroke="#EEA93B"/>
    </g>
    <g transform="translate(-17 17)">
      <g clip-path="url(#weave)">
        <use href="#link" stroke="#EEA93B"/>
      </g>
    </g>
  </g>
  <g transform="translate(1155 308) rotate(45) scale(4.6)">
    <g transform="translate(-17 17)">
      <use href="#link" stroke="#E9E4D8"/>
    </g>
    <g transform="translate(17 -17)">
      <use href="#link" stroke="#EEA93B"/>
    </g>
    <g transform="translate(-17 17)">
      <g clip-path="url(#weave)">
        <use href="#link" stroke="#E9E4D8"/>
      </g>
    </g>
  </g>
  <path transform="translate(104.00 190.00) scale(0.0210 -0.0210)" d="M86 0V710H234L445 127L656 710H804V0H696V520L505 1H385L194 520V0Z" fill="#EEA93B"/>
  <path transform="translate(128.19 190.00) scale(0.0210 -0.0210)" d="M86 0V710H194V0Z" fill="#EEA93B"/>
  <path transform="translate(139.57 190.00) scale(0.0210 -0.0210)" d="M86 0V710H223L551 131V710H659V0H517L194 566V0Z" fill="#EEA93B"/>
  <path transform="translate(160.72 190.00) scale(0.0210 -0.0210)" d="M86 0V710H548V611H194V404H536V308H194V99H556V0Z" fill="#EEA93B"/>
  <path transform="translate(179.39 190.00) scale(0.0210 -0.0210)" d="M368 -16Q272 -16 199.0 28.5Q126 73 85.0 156.0Q44 239 44 354Q44 468 84.5 551.5Q125 635 198.0 680.5Q271 726 369 726Q501 726 574.0 660.0Q647 594 669 477L556 471Q542 544 496.0 585.5Q450 627 369 627Q304 627 256.5 594.0Q209 561 182.5 500.0Q156 439 156 354Q156 269 182.5 208.0Q209 147 257.0 115.0Q305 83 368 83Q454 83 501.5 128.5Q549 174 561 254L674 248Q661 167 622.0 108.0Q583 49 519.0 16.5Q455 -16 368 -16Z" fill="#EEA93B"/>
  <path transform="translate(200.20 190.00) scale(0.0210 -0.0210)" d="M86 0V710H369Q445 710 500.0 684.0Q555 658 585.0 610.0Q615 562 615 496Q615 448 593.5 410.0Q572 372 536.5 349.5Q501 327 461 324L456 333Q523 333 560.0 302.5Q597 272 603 207L622 0H513L496 193Q493 236 467.0 256.5Q441 277 382 277H194V0ZM194 376H371Q432 376 467.5 406.5Q503 437 503 493Q503 550 467.0 580.5Q431 611 362 611H194Z" fill="#EEA93B"/>
  <path transform="translate(220.15 190.00) scale(0.0210 -0.0210)" d="M20 0 276 710H413L669 0H554L489 185H199L135 0ZM233 283H456L344 607Z" fill="#EEA93B"/>
  <path transform="translate(240.04 190.00) scale(0.0210 -0.0210)" d="M86 0V710H547V611H137L194 670V344L137 395H529V299H137L194 350V0Z" fill="#EEA93B"/>
  <path transform="translate(258.41 190.00) scale(0.0210 -0.0210)" d="M230 0V611H12V710H556V611H338V0Z" fill="#EEA93B"/>
  <path transform="translate(287.20 190.00) scale(0.0210 -0.0210)" d="M86 0V710H194V40L137 99H540V0Z" fill="#EEA93B"/>
  <path transform="translate(304.91 190.00) scale(0.0210 -0.0210)" d="M20 0 276 710H413L669 0H554L489 185H199L135 0ZM233 283H456L344 607Z" fill="#EEA93B"/>
  <path transform="translate(324.86 190.00) scale(0.0210 -0.0210)" d="M347 -16Q263 -16 200.5 16.5Q138 49 104.5 109.0Q71 169 71 251V710H179V251Q179 170 223.0 126.5Q267 83 347 83Q427 83 471.0 126.5Q515 170 515 251V710H623V251Q623 169 589.5 109.0Q556 49 494.0 16.5Q432 -16 347 -16Z" fill="#EEA93B"/>
  <path transform="translate(345.63 190.00) scale(0.0210 -0.0210)" d="M86 0V710H223L551 131V710H659V0H517L194 566V0Z" fill="#EEA93B"/>
  <path transform="translate(366.84 190.00) scale(0.0210 -0.0210)" d="M368 -16Q272 -16 199.0 28.5Q126 73 85.0 156.0Q44 239 44 354Q44 468 84.5 551.5Q125 635 198.0 680.5Q271 726 369 726Q501 726 574.0 660.0Q647 594 669 477L556 471Q542 544 496.0 585.5Q450 627 369 627Q304 627 256.5 594.0Q209 561 182.5 500.0Q156 439 156 354Q156 269 182.5 208.0Q209 147 257.0 115.0Q305 83 368 83Q454 83 501.5 128.5Q549 174 561 254L674 248Q661 167 622.0 108.0Q583 49 519.0 16.5Q455 -16 368 -16Z" fill="#EEA93B"/>
  <path transform="translate(387.65 190.00) scale(0.0210 -0.0210)" d="M86 0V710H194V368L142 406H574L522 368V710H630V0H522V346L574 308H142L194 346V0Z" fill="#EEA93B"/>
  <path transform="translate(408.19 190.00) scale(0.0210 -0.0210)" d="M86 0V710H548V611H194V404H536V308H194V99H556V0Z" fill="#EEA93B"/>
  <path transform="translate(426.69 190.00) scale(0.0210 -0.0210)" d="M86 0V710H369Q445 710 500.0 684.0Q555 658 585.0 610.0Q615 562 615 496Q615 448 593.5 410.0Q572 372 536.5 349.5Q501 327 461 324L456 333Q523 333 560.0 302.5Q597 272 603 207L622 0H513L496 193Q493 236 467.0 256.5Q441 277 382 277H194V0ZM194 376H371Q432 376 467.5 406.5Q503 437 503 493Q503 550 467.0 580.5Q431 611 362 611H194Z" fill="#EEA93B"/>
  <path transform="translate(104.00 292.00) scale(0.1120 -0.1120)" d="M80 0V710H355Q480 710 550.0 650.0Q620 590 620 484Q620 413 588.0 361.5Q556 310 497.0 283.0Q438 256 355 256H210V0ZM210 369H349Q415 369 450.5 398.0Q486 427 486 484Q486 540 450.5 568.5Q415 597 349 597H210Z" fill="#F2EDE3"/>
  <path transform="translate(172.99 292.00) scale(0.1120 -0.1120)" d="M302 -12Q223 -12 163.5 22.5Q104 57 71.5 120.0Q39 183 39 267Q39 352 71.5 414.5Q104 477 163.5 511.5Q223 546 302 546Q381 546 440.0 511.5Q499 477 531.5 414.5Q564 352 564 267Q564 183 531.5 120.0Q499 57 440.0 22.5Q381 -12 302 -12ZM302 92Q364 92 397.5 138.0Q431 184 431 267Q431 349 397.5 395.5Q364 442 302 442Q240 442 206.0 395.5Q172 349 172 267Q172 184 206.0 138.0Q240 92 302 92Z" fill="#F2EDE3"/>
  <path transform="translate(237.73 292.00) scale(0.1120 -0.1120)" d="M198 0Q140 0 105.0 30.0Q70 60 70 126V710H198V139Q198 119 208.5 109.0Q219 99 238 99H277V0Z" fill="#F2EDE3"/>
  <path transform="translate(265.39 292.00) scale(0.1120 -0.1120)" d="M108 -150V-51H176Q202 -51 214.5 -43.0Q227 -35 234 -16L249 21H212L21 534H154L288 141L416 534H549L340 -56Q322 -106 289.5 -128.0Q257 -150 199 -150Z" fill="#F2EDE3"/>
  <path transform="translate(324.53 292.00) scale(0.1120 -0.1120)" d="M70 0V534H186L190 403L178 409Q187 452 209.5 482.5Q232 513 264.5 529.5Q297 546 336 546Q404 546 446.0 507.5Q488 469 499 402H482Q491 449 513.0 480.5Q535 512 568.5 529.0Q602 546 644 546Q699 546 739.0 522.5Q779 499 800.5 454.0Q822 409 822 343V0H694V310Q694 376 671.5 409.0Q649 442 603 442Q572 442 550.0 426.0Q528 410 516.5 379.5Q505 349 505 306V0H386V306Q386 372 366.0 407.0Q346 442 297 442Q266 442 244.5 426.0Q223 410 210.5 379.5Q198 349 198 306V0Z" fill="#F2EDE3"/>
  <path transform="translate(420.74 292.00) scale(0.1120 -0.1120)" d="M301 -12Q221 -12 162.0 22.5Q103 57 71.0 120.0Q39 183 39 267Q39 351 71.0 413.5Q103 476 161.5 511.0Q220 546 298 546Q374 546 431.5 512.0Q489 478 520.0 414.0Q551 350 551 260V231H172Q176 161 210.5 125.5Q245 90 302 90Q345 90 373.5 109.5Q402 129 413 164L544 156Q522 78 457.5 33.0Q393 -12 301 -12ZM172 317H419Q415 382 382.0 413.5Q349 445 298 445Q247 445 213.5 412.0Q180 379 172 317Z" fill="#F2EDE3"/>
  <path transform="translate(483.57 292.00) scale(0.1120 -0.1120)" d="M70 0V534H190L195 386L184 388Q196 465 229.5 499.5Q263 534 321 534H370V424H320Q279 424 252.0 412.0Q225 400 211.5 374.5Q198 349 198 308V0Z" fill="#F2EDE3"/>
  <path transform="translate(524.22 292.00) scale(0.1120 -0.1120)" d="M70 0V534H198V0ZM68 605V719H201V605Z" fill="#F2EDE3"/>
  <path transform="translate(550.10 292.00) scale(0.1120 -0.1120)" d="M246 -12Q165 -12 117.5 41.5Q70 95 70 190V534H198V222Q198 155 220.5 123.5Q243 92 289 92Q341 92 369.5 126.5Q398 161 398 227V534H526V0H409L406 147L422 142Q410 66 365.0 27.0Q320 -12 246 -12Z" fill="#F2EDE3"/>
  <path transform="translate(614.72 292.00) scale(0.1120 -0.1120)" d="M70 0V534H186L190 403L178 409Q187 452 209.5 482.5Q232 513 264.5 529.5Q297 546 336 546Q404 546 446.0 507.5Q488 469 499 402H482Q491 449 513.0 480.5Q535 512 568.5 529.0Q602 546 644 546Q699 546 739.0 522.5Q779 499 800.5 454.0Q822 409 822 343V0H694V310Q694 376 671.5 409.0Q649 442 603 442Q572 442 550.0 426.0Q528 410 516.5 379.5Q505 349 505 306V0H386V306Q386 372 366.0 407.0Q346 442 297 442Q266 442 244.5 426.0Q223 410 210.5 379.5Q198 349 198 306V0Z" fill="#F2EDE3"/>
  <path transform="translate(712.38 292.00) scale(0.1120 -0.1120)" d="M39 0V140H185V0Z" fill="#EEA93B"/>
  <path transform="translate(104.00 384.00) scale(0.0380 -0.0380)" d="M245 0V290L-6 710H96L288 378L480 710H582L331 290V0Z" fill="#A39E93"/>
  <path transform="translate(123.23 384.00) scale(0.0380 -0.0380)" d="M287 -12Q214 -12 159.0 22.0Q104 56 74.0 118.5Q44 181 44 265Q44 350 74.0 412.0Q104 474 159.0 508.0Q214 542 287 542Q360 542 414.5 508.0Q469 474 499.0 412.0Q529 350 529 265Q529 181 499.0 118.5Q469 56 414.5 22.0Q360 -12 287 -12ZM287 68Q360 68 400.5 120.5Q441 173 441 265Q441 357 400.5 409.5Q360 462 287 462Q214 462 173.0 409.5Q132 357 132 265Q132 173 173.0 120.5Q214 68 287 68Z" fill="#A39E93"/>
  <path transform="translate(144.62 384.00) scale(0.0380 -0.0380)" d="M254 -12Q175 -12 127.5 41.5Q80 95 80 189V530H164V212Q164 135 191.5 98.5Q219 62 276 62Q339 62 375.0 102.5Q411 143 411 214V530H495V0H415V131L428 124Q412 59 367.0 23.5Q322 -12 254 -12Z" fill="#A39E93"/>
  <path transform="translate(166.47 384.00) scale(0.0380 -0.0380)" d="M80 0V530H154L158 396L150 399Q160 467 193.5 498.5Q227 530 283 530H335V450H284Q244 450 217.5 435.5Q191 421 177.5 392.5Q164 364 164 320V0Z" fill="#A39E93"/>
  <path transform="translate(190.37 384.00) scale(0.0380 -0.0380)" d="M80 0V530H164V0ZM78 613V711H166V613Z" fill="#A39E93"/>
  <path transform="translate(199.87 384.00) scale(0.0380 -0.0380)" d="M80 0V530H157L160 395L150 404Q160 451 185.0 481.5Q210 512 245.5 527.0Q281 542 322 542Q383 542 422.5 515.0Q462 488 481.5 442.5Q501 397 501 341V0H417V317Q417 366 405.5 399.5Q394 433 369.0 450.5Q344 468 304 468Q243 468 203.5 429.5Q164 391 164 317V0Z" fill="#A39E93"/>
  <path transform="translate(221.50 384.00) scale(0.0380 -0.0380)" d="M273 -12Q200 -12 150.5 11.0Q101 34 74.5 74.5Q48 115 44 167L132 173Q140 125 171.5 96.5Q203 68 273 68Q327 68 356.5 85.5Q386 103 386 142Q386 163 376.5 177.0Q367 191 339.0 201.5Q311 212 257 222Q183 236 141.0 257.0Q99 278 82.0 308.0Q65 338 65 380Q65 451 117.5 496.5Q170 542 266 542Q336 542 380.5 517.5Q425 493 448.0 454.0Q471 415 476 372L388 366Q386 391 373.0 413.0Q360 435 334.0 448.5Q308 462 264 462Q207 462 180.0 440.0Q153 418 153 384Q153 358 163.5 341.5Q174 325 200.5 314.5Q227 304 273 296Q351 283 395.0 263.0Q439 243 456.5 213.5Q474 184 474 142Q474 69 417.5 28.5Q361 -12 273 -12Z" fill="#A39E93"/>
  <path transform="translate(240.12 384.00) scale(0.0380 -0.0380)" d="M274 0Q202 0 167.5 33.0Q133 66 133 136V654H217V138Q217 102 233.0 88.0Q249 74 282 74H358V0ZM55 456V530H358V456Z" fill="#A39E93"/>
  <path transform="translate(254.63 384.00) scale(0.0380 -0.0380)" d="M223 -12Q141 -12 92.5 26.0Q44 64 44 132Q44 200 84.0 239.0Q124 278 211 294L399 329Q399 396 367.5 429.0Q336 462 273 462Q218 462 186.0 437.5Q154 413 142 367L53 374Q68 449 125.5 495.5Q183 542 273 542Q375 542 429.0 484.5Q483 427 483 326V107Q483 89 489.5 81.5Q496 74 511 74H532V0Q528 -1 519.0 -1.5Q510 -2 500 -2Q464 -2 441.5 9.5Q419 21 409.0 45.5Q399 70 399 110L409 108Q402 74 375.0 46.5Q348 19 308.0 3.5Q268 -12 223 -12ZM231 62Q284 62 321.5 82.5Q359 103 379.0 138.5Q399 174 399 218V256L227 224Q173 214 152.5 193.5Q132 173 132 140Q132 103 158.5 82.5Q185 62 231 62Z" fill="#A39E93"/>
  <path transform="translate(275.42 384.00) scale(0.0380 -0.0380)" d="M80 0V530H157L160 395L150 404Q160 451 185.0 481.5Q210 512 245.5 527.0Q281 542 322 542Q383 542 422.5 515.0Q462 488 481.5 442.5Q501 397 501 341V0H417V317Q417 366 405.5 399.5Q394 433 369.0 450.5Q344 468 304 468Q243 468 203.5 429.5Q164 391 164 317V0Z" fill="#A39E93"/>
  <path transform="translate(297.04 384.00) scale(0.0380 -0.0380)" d="M287 -12Q213 -12 158.5 22.0Q104 56 74.0 118.5Q44 181 44 265Q44 349 74.0 411.0Q104 473 158.5 507.5Q213 542 287 542Q348 542 395.5 520.5Q443 499 473.0 458.0Q503 417 512 358L424 352Q415 405 378.0 433.5Q341 462 287 462Q214 462 173.0 409.5Q132 357 132 265Q132 173 173.0 120.5Q214 68 287 68Q341 68 378.0 98.0Q415 128 424 188L512 182Q503 123 473.0 79.5Q443 36 395.5 12.0Q348 -12 287 -12Z" fill="#A39E93"/>
  <path transform="translate(317.41 384.00) scale(0.0380 -0.0380)" d="M287 -12Q212 -12 157.5 22.0Q103 56 73.5 118.5Q44 181 44 265Q44 349 73.5 411.0Q103 473 156.5 507.5Q210 542 283 542Q352 542 405.0 509.5Q458 477 487.5 415.0Q517 353 517 264V239H132Q137 154 177.5 111.0Q218 68 287 68Q339 68 372.5 92.5Q406 117 419 157L509 150Q488 79 429.5 33.5Q371 -12 287 -12ZM132 313H425Q419 390 380.5 426.0Q342 462 283 462Q222 462 182.5 424.5Q143 387 132 313Z" fill="#A39E93"/>
  <path transform="translate(348.23 384.00) scale(0.0380 -0.0380)" d="M80 0V530H164V0ZM78 613V711H166V613Z" fill="#A39E93"/>
  <path transform="translate(357.12 384.00) scale(0.0380 -0.0380)" d="M273 -12Q200 -12 150.5 11.0Q101 34 74.5 74.5Q48 115 44 167L132 173Q140 125 171.5 96.5Q203 68 273 68Q327 68 356.5 85.5Q386 103 386 142Q386 163 376.5 177.0Q367 191 339.0 201.5Q311 212 257 222Q183 236 141.0 257.0Q99 278 82.0 308.0Q65 338 65 380Q65 451 117.5 496.5Q170 542 266 542Q336 542 380.5 517.5Q425 493 448.0 454.0Q471 415 476 372L388 366Q386 391 373.0 413.0Q360 435 334.0 448.5Q308 462 264 462Q207 462 180.0 440.0Q153 418 153 384Q153 358 163.5 341.5Q174 325 200.5 314.5Q227 304 273 296Q351 283 395.0 263.0Q439 243 456.5 213.5Q474 184 474 142Q474 69 417.5 28.5Q361 -12 273 -12Z" fill="#A39E93"/>
  <path transform="translate(386.38 384.00) scale(0.0380 -0.0380)" d="M223 -12Q141 -12 92.5 26.0Q44 64 44 132Q44 200 84.0 239.0Q124 278 211 294L399 329Q399 396 367.5 429.0Q336 462 273 462Q218 462 186.0 437.5Q154 413 142 367L53 374Q68 449 125.5 495.5Q183 542 273 542Q375 542 429.0 484.5Q483 427 483 326V107Q483 89 489.5 81.5Q496 74 511 74H532V0Q528 -1 519.0 -1.5Q510 -2 500 -2Q464 -2 441.5 9.5Q419 21 409.0 45.5Q399 70 399 110L409 108Q402 74 375.0 46.5Q348 19 308.0 3.5Q268 -12 223 -12ZM231 62Q284 62 321.5 82.5Q359 103 379.0 138.5Q399 174 399 218V256L227 224Q173 214 152.5 193.5Q132 173 132 140Q132 103 158.5 82.5Q185 62 231 62Z" fill="#A39E93"/>
  <path transform="translate(416.82 384.00) scale(0.0380 -0.0380)" d="M80 0V530H154L158 396L150 399Q160 467 193.5 498.5Q227 530 283 530H335V450H284Q244 450 217.5 435.5Q191 421 177.5 392.5Q164 364 164 320V0Z" fill="#A39E93"/>
  <path transform="translate(429.70 384.00) scale(0.0380 -0.0380)" d="M287 -12Q212 -12 157.5 22.0Q103 56 73.5 118.5Q44 181 44 265Q44 349 73.5 411.0Q103 473 156.5 507.5Q210 542 283 542Q352 542 405.0 509.5Q458 477 487.5 415.0Q517 353 517 264V239H132Q137 154 177.5 111.0Q218 68 287 68Q339 68 372.5 92.5Q406 117 419 157L509 150Q488 79 429.5 33.5Q371 -12 287 -12ZM132 313H425Q419 390 380.5 426.0Q342 462 283 462Q222 462 182.5 424.5Q143 387 132 313Z" fill="#A39E93"/>
  <path transform="translate(450.64 384.00) scale(0.0380 -0.0380)" d="M287 -12Q213 -12 158.5 22.0Q104 56 74.0 118.5Q44 181 44 265Q44 349 74.0 411.0Q104 473 158.5 507.5Q213 542 287 542Q348 542 395.5 520.5Q443 499 473.0 458.0Q503 417 512 358L424 352Q415 405 378.0 433.5Q341 462 287 462Q214 462 173.0 409.5Q132 357 132 265Q132 173 173.0 120.5Q214 68 287 68Q341 68 378.0 98.0Q415 128 424 188L512 182Q503 123 473.0 79.5Q443 36 395.5 12.0Q348 -12 287 -12Z" fill="#A39E93"/>
  <path transform="translate(471.00 384.00) scale(0.0380 -0.0380)" d="M80 0V530H164V0ZM78 613V711H166V613Z" fill="#A39E93"/>
  <path transform="translate(480.50 384.00) scale(0.0380 -0.0380)" d="M80 -150V530H158L160 416L148 422Q168 481 214.5 511.5Q261 542 322 542Q401 542 451.5 503.0Q502 464 526.5 401.0Q551 338 551 265Q551 192 526.5 129.0Q502 66 451.5 27.0Q401 -12 322 -12Q281 -12 245.5 2.0Q210 16 185.5 41.0Q161 66 152 100L164 114V-150ZM314 68Q383 68 423.0 120.0Q463 172 463 265Q463 358 423.0 410.0Q383 462 314 462Q268 462 234.5 440.0Q201 418 182.5 374.0Q164 330 164 265Q164 200 182.0 156.0Q200 112 234.0 90.0Q268 68 314 68Z" fill="#A39E93"/>
  <path transform="translate(502.73 384.00) scale(0.0380 -0.0380)" d="M287 -12Q212 -12 157.5 22.0Q103 56 73.5 118.5Q44 181 44 265Q44 349 73.5 411.0Q103 473 156.5 507.5Q210 542 283 542Q352 542 405.0 509.5Q458 477 487.5 415.0Q517 353 517 264V239H132Q137 154 177.5 111.0Q218 68 287 68Q339 68 372.5 92.5Q406 117 419 157L509 150Q488 79 429.5 33.5Q371 -12 287 -12ZM132 313H425Q419 390 380.5 426.0Q342 462 283 462Q222 462 182.5 424.5Q143 387 132 313Z" fill="#A39E93"/>
  <path transform="translate(524.05 384.00) scale(0.0380 -0.0380)" d="M47 -156 95 0H44V113H157V14L97 -156Z" fill="#A39E93"/>
  <path transform="translate(104.00 442.00) scale(0.0380 -0.0380)" d="M80 0V530H157L160 395L150 404Q160 451 185.0 481.5Q210 512 245.5 527.0Q281 542 322 542Q383 542 422.5 515.0Q462 488 481.5 442.5Q501 397 501 341V0H417V317Q417 366 405.5 399.5Q394 433 369.0 450.5Q344 468 304 468Q243 468 203.5 429.5Q164 391 164 317V0Z" fill="#A39E93"/>
  <path transform="translate(125.62 442.00) scale(0.0380 -0.0380)" d="M287 -12Q214 -12 159.0 22.0Q104 56 74.0 118.5Q44 181 44 265Q44 350 74.0 412.0Q104 474 159.0 508.0Q214 542 287 542Q360 542 414.5 508.0Q469 474 499.0 412.0Q529 350 529 265Q529 181 499.0 118.5Q469 56 414.5 22.0Q360 -12 287 -12ZM287 68Q360 68 400.5 120.5Q441 173 441 265Q441 357 400.5 409.5Q360 462 287 462Q214 462 173.0 409.5Q132 357 132 265Q132 173 173.0 120.5Q214 68 287 68Z" fill="#A39E93"/>
  <path transform="translate(146.26 442.00) scale(0.0380 -0.0380)" d="M274 0Q202 0 167.5 33.0Q133 66 133 136V654H217V138Q217 102 233.0 88.0Q249 74 282 74H358V0ZM55 456V530H358V456Z" fill="#A39E93"/>
  <path transform="translate(170.65 442.00) scale(0.0380 -0.0380)" d="M223 -12Q141 -12 92.5 26.0Q44 64 44 132Q44 200 84.0 239.0Q124 278 211 294L399 329Q399 396 367.5 429.0Q336 462 273 462Q218 462 186.0 437.5Q154 413 142 367L53 374Q68 449 125.5 495.5Q183 542 273 542Q375 542 429.0 484.5Q483 427 483 326V107Q483 89 489.5 81.5Q496 74 511 74H532V0Q528 -1 519.0 -1.5Q510 -2 500 -2Q464 -2 441.5 9.5Q419 21 409.0 45.5Q399 70 399 110L409 108Q402 74 375.0 46.5Q348 19 308.0 3.5Q268 -12 223 -12ZM231 62Q284 62 321.5 82.5Q359 103 379.0 138.5Q399 174 399 218V256L227 224Q173 214 152.5 193.5Q132 173 132 140Q132 103 158.5 82.5Q185 62 231 62Z" fill="#A39E93"/>
  <path transform="translate(201.09 442.00) scale(0.0380 -0.0380)" d="M80 -150V530H158L160 416L148 422Q168 481 214.5 511.5Q261 542 322 542Q401 542 451.5 503.0Q502 464 526.5 401.0Q551 338 551 265Q551 192 526.5 129.0Q502 66 451.5 27.0Q401 -12 322 -12Q281 -12 245.5 2.0Q210 16 185.5 41.0Q161 66 152 100L164 114V-150ZM314 68Q383 68 423.0 120.0Q463 172 463 265Q463 358 423.0 410.0Q383 462 314 462Q268 462 234.5 440.0Q201 418 182.5 374.0Q164 330 164 265Q164 200 182.0 156.0Q200 112 234.0 90.0Q268 68 314 68Z" fill="#A39E93"/>
  <path transform="translate(223.32 442.00) scale(0.0380 -0.0380)" d="M80 0V530H164V0ZM78 613V711H166V613Z" fill="#A39E93"/>
  <path transform="translate(232.21 442.00) scale(0.0380 -0.0380)" d="M184 0Q138 0 109.0 24.0Q80 48 80 100V710H164V107Q164 91 172.5 82.5Q181 74 197 74H243V0Z" fill="#A39E93"/>
  <path transform="translate(242.13 442.00) scale(0.0380 -0.0380)" d="M287 -12Q212 -12 157.5 22.0Q103 56 73.5 118.5Q44 181 44 265Q44 349 73.5 411.0Q103 473 156.5 507.5Q210 542 283 542Q352 542 405.0 509.5Q458 477 487.5 415.0Q517 353 517 264V239H132Q137 154 177.5 111.0Q218 68 287 68Q339 68 372.5 92.5Q406 117 419 157L509 150Q488 79 429.5 33.5Q371 -12 287 -12ZM132 313H425Q419 390 380.5 426.0Q342 462 283 462Q222 462 182.5 424.5Q143 387 132 313Z" fill="#A39E93"/>
  <path transform="translate(272.95 442.00) scale(0.0380 -0.0380)" d="M287 -12Q214 -12 159.0 22.0Q104 56 74.0 118.5Q44 181 44 265Q44 350 74.0 412.0Q104 474 159.0 508.0Q214 542 287 542Q360 542 414.5 508.0Q469 474 499.0 412.0Q529 350 529 265Q529 181 499.0 118.5Q469 56 414.5 22.0Q360 -12 287 -12ZM287 68Q360 68 400.5 120.5Q441 173 441 265Q441 357 400.5 409.5Q360 462 287 462Q214 462 173.0 409.5Q132 357 132 265Q132 173 173.0 120.5Q214 68 287 68Z" fill="#A39E93"/>
  <path transform="translate(293.58 442.00) scale(0.0380 -0.0380)" d="M132 0V578Q132 637 166.0 673.5Q200 710 272 710H356V636H278Q247 636 231.5 619.0Q216 602 216 572V0ZM60 456V530H349V456Z" fill="#A39E93"/>
  <path transform="translate(318.09 442.00) scale(0.0380 -0.0380)" d="M287 -12Q213 -12 158.5 22.0Q104 56 74.0 118.5Q44 181 44 265Q44 349 74.0 411.0Q104 473 158.5 507.5Q213 542 287 542Q348 542 395.5 520.5Q443 499 473.0 458.0Q503 417 512 358L424 352Q415 405 378.0 433.5Q341 462 287 462Q214 462 173.0 409.5Q132 357 132 265Q132 173 173.0 120.5Q214 68 287 68Q341 68 378.0 98.0Q415 128 424 188L512 182Q503 123 473.0 79.5Q443 36 395.5 12.0Q348 -12 287 -12Z" fill="#A39E93"/>
  <path transform="translate(338.46 442.00) scale(0.0380 -0.0380)" d="M287 -12Q214 -12 159.0 22.0Q104 56 74.0 118.5Q44 181 44 265Q44 350 74.0 412.0Q104 474 159.0 508.0Q214 542 287 542Q360 542 414.5 508.0Q469 474 499.0 412.0Q529 350 529 265Q529 181 499.0 118.5Q469 56 414.5 22.0Q360 -12 287 -12ZM287 68Q360 68 400.5 120.5Q441 173 441 265Q441 357 400.5 409.5Q360 462 287 462Q214 462 173.0 409.5Q132 357 132 265Q132 173 173.0 120.5Q214 68 287 68Z" fill="#A39E93"/>
  <path transform="translate(359.85 442.00) scale(0.0380 -0.0380)" d="M80 -150V530H158L160 416L148 422Q168 481 214.5 511.5Q261 542 322 542Q401 542 451.5 503.0Q502 464 526.5 401.0Q551 338 551 265Q551 192 526.5 129.0Q502 66 451.5 27.0Q401 -12 322 -12Q281 -12 245.5 2.0Q210 16 185.5 41.0Q161 66 152 100L164 114V-150ZM314 68Q383 68 423.0 120.0Q463 172 463 265Q463 358 423.0 410.0Q383 462 314 462Q268 462 234.5 440.0Q201 418 182.5 374.0Q164 330 164 265Q164 200 182.0 156.0Q200 112 234.0 90.0Q268 68 314 68Z" fill="#A39E93"/>
  <path transform="translate(382.08 442.00) scale(0.0380 -0.0380)" d="M80 0V530H164V0ZM78 613V711H166V613Z" fill="#A39E93"/>
  <path transform="translate(390.98 442.00) scale(0.0380 -0.0380)" d="M287 -12Q212 -12 157.5 22.0Q103 56 73.5 118.5Q44 181 44 265Q44 349 73.5 411.0Q103 473 156.5 507.5Q210 542 283 542Q352 542 405.0 509.5Q458 477 487.5 415.0Q517 353 517 264V239H132Q137 154 177.5 111.0Q218 68 287 68Q339 68 372.5 92.5Q406 117 419 157L509 150Q488 79 429.5 33.5Q371 -12 287 -12ZM132 313H425Q419 390 380.5 426.0Q342 462 283 462Q222 462 182.5 424.5Q143 387 132 313Z" fill="#A39E93"/>
  <path transform="translate(411.91 442.00) scale(0.0380 -0.0380)" d="M268 -12Q199 -12 148.5 22.0Q98 56 71.0 118.0Q44 180 44 265Q44 350 71.0 412.0Q98 474 148.5 508.0Q199 542 268 542Q321 542 365.0 519.5Q409 497 431 456V710H515V0H439L436 80Q414 37 369.0 12.5Q324 -12 268 -12ZM285 68Q332 68 364.5 92.0Q397 116 414.0 160.5Q431 205 431 265Q431 327 414.0 371.0Q397 415 364.5 438.5Q332 462 285 462Q215 462 173.5 409.5Q132 357 132 265Q132 174 173.5 121.0Q215 68 285 68Z" fill="#A39E93"/>
  <path transform="translate(444.02 442.00) scale(0.0380 -0.0380)" d="M132 0V578Q132 637 166.0 673.5Q200 710 272 710H356V636H278Q247 636 231.5 619.0Q216 602 216 572V0ZM60 456V530H349V456ZM435 0V530H519V0ZM433 613V711H521V613Z" fill="#A39E93"/>
  <path transform="translate(466.41 442.00) scale(0.0380 -0.0380)" d="M184 0Q138 0 109.0 24.0Q80 48 80 100V710H164V107Q164 91 172.5 82.5Q181 74 197 74H243V0Z" fill="#A39E93"/>
  <path transform="translate(476.32 442.00) scale(0.0380 -0.0380)" d="M287 -12Q212 -12 157.5 22.0Q103 56 73.5 118.5Q44 181 44 265Q44 349 73.5 411.0Q103 473 156.5 507.5Q210 542 283 542Q352 542 405.0 509.5Q458 477 487.5 415.0Q517 353 517 264V239H132Q137 154 177.5 111.0Q218 68 287 68Q339 68 372.5 92.5Q406 117 419 157L509 150Q488 79 429.5 33.5Q371 -12 287 -12ZM132 313H425Q419 390 380.5 426.0Q342 462 283 462Q222 462 182.5 424.5Q143 387 132 313Z" fill="#A39E93"/>
  <path transform="translate(497.26 442.00) scale(0.0380 -0.0380)" d="M273 -12Q200 -12 150.5 11.0Q101 34 74.5 74.5Q48 115 44 167L132 173Q140 125 171.5 96.5Q203 68 273 68Q327 68 356.5 85.5Q386 103 386 142Q386 163 376.5 177.0Q367 191 339.0 201.5Q311 212 257 222Q183 236 141.0 257.0Q99 278 82.0 308.0Q65 338 65 380Q65 451 117.5 496.5Q170 542 266 542Q336 542 380.5 517.5Q425 493 448.0 454.0Q471 415 476 372L388 366Q386 391 373.0 413.0Q360 435 334.0 448.5Q308 462 264 462Q207 462 180.0 440.0Q153 418 153 384Q153 358 163.5 341.5Q174 325 200.5 314.5Q227 304 273 296Q351 283 395.0 263.0Q439 243 456.5 213.5Q474 184 474 142Q474 69 417.5 28.5Q361 -12 273 -12Z" fill="#A39E93"/>
  <path transform="translate(517.02 442.00) scale(0.0380 -0.0380)" d="M44 0V113H157V0Z" fill="#A39E93"/>
</svg>
