<svg width="1280" height="640" viewBox="0 0 1280 640" xmlns="http://www.w3.org/2000/svg">
  <defs>
    <linearGradient id="bg" x1="0" y1="0" x2="0" y2="1">
      <stop offset="0" stop-color="#1E1B16"/>
      <stop offset="1" stop-color="#131110"/>
    </linearGradient>
    <radialGradient id="glow" cx="0.89" cy="0.49" r="0.62">
      <stop offset="0" stop-color="#EEA93B" stop-opacity="0.17"/>
      <stop offset="1" stop-color="#EEA93B" stop-opacity="0"/>
    </radialGradient>
    <rect id="link" x="-30" y="-30" width="60" height="60" rx="16" fill="none" stroke-width="12"/>
    <clipPath id="weave">
      <rect x="24" y="-10" width="12" height="12"/>
    </clipPath>
  </defs>
  <rect width="1280" height="640" fill="url(#bg)"/>
  <rect width="1280" height="640" fill="url(#glow)"/>
  <rect x="0.5" y="0.5" width="1279" height="639" fill="none" stroke="#FFFFFF" stroke-opacity="0.07"/>
  <g transform="translate(-30 730) rotate(45) scale(3.23)" opacity="0.05">
    <g transform="translate(-17 17)">
      <use href="#link" stroke="#EEA93B"/>
    </g>
    <g transform="translate(17 -17)">
      <use href="#link" stroke="#EEA93B"/>
    </g>
    <g transform="translate(-17 17)">
      <g clip-path="url(#weave)">
        <use href="#link" stroke="#EEA93B"/>
      </g>
    </g>
  </g>
  <g transform="translate(1155 308) rotate(45) scale(4.6)">
    <g transform="translate(-17 17)">
      <use href="#link" stroke="#E9E4D8"/>
    </g>
    <g transform="translate(17 -17)">
      <use href="#link" stroke="#EEA93B"/>
    </g>
    <g transform="translate(-17 17)">
      <g clip-path="url(#weave)">
        <use href="#link" stroke="#E9E4D8"/>
      </g>
    </g>
  </g>
  <path transform="translate(104.00 190.00) scale(0.0210 -0.0210)" d="M86 0V710H234L445 127L656 710H804V0H696V520L505 1H385L194 520V0Z" fill="#EEA93B"/>
  <path transform="translate(128.19 190.00) scale(0.0210 -0.0210)" d="M86 0V710H194V0Z" fill="#EEA93B"/>
  <path transform="translate(139.57 190.00) scale(0.0210 -0.0210)" d="M86 0V710H223L551 131V710H659V0H517L194 566V0Z" fill="#EEA93B"/>
  <path transform="translate(160.72 190.00) scale(0.0210 -0.0210)" d="M86 0V710H548V611H194V404H536V308H194V99H556V0Z" fill="#EEA93B"/>
  <path transform="translate(179.39 190.00) scale(0.0210 -0.0210)" d="M368 -16Q272 -16 199.0 28.5Q126 73 85.0 156.0Q44 239 44 354Q44 468 84.5 551.5Q125 635 198.0 680.5Q271 726 369 726Q501 726 574.0 660.0Q647 594 669 477L556 471Q542 544 496.0 585.5Q450 627 369 627Q304 627 256.5 594.0Q209 561 182.5 500.0Q156 439 156 354Q156 269 182.5 208.0Q209 147 257.0 115.0Q305 83 368 83Q454 83 501.5 128.5Q549 174 561 254L674 248Q661 167 622.0 108.0Q583 49 519.0 16.5Q455 -16 368 -16Z" fill="#EEA93B"/>
  <path transform="translate(200.20 190.00) scale(0.0210 -0.0210)" d="M86 0V710H369Q445 710 500.0 684.0Q555 658 585.0 610.0Q615 562 615 496Q615 448 593.5 410.0Q572 372 536.5 349.5Q501 327 461 324L456 333Q523 333 560.0 302.5Q597 272 603 207L622 0H513L496 193Q493 236 467.0 256.5Q441 277 382 277H194V0ZM194 376H371Q432 376 467.5 406.5Q503 437 503 493Q503 550 467.0 580.5Q431 611 362 611H194Z" fill="#EEA93B"/>
  <path transform="translate(220.15 190.00) scale(0.0210 -0.0210)" d="M20 0 276 710H413L669 0H554L489 185H199L135 0ZM233 283H456L344 607Z" fill="#EEA93B"/>
  <path transform="translate(240.04 190.00) scale(0.0210 -0.0210)" d="M86 0V710H547V611H137L194 670V344L137 395H529V299H137L194 350V0Z" fill="#EEA93B"/>
  <path transform="translate(258.41 190.00) scale(0.0210 -0.0210)" d="M230 0V611H12V710H556V611H338V0Z" fill="#EEA93B"/>
  <path transform="translate(287.20 190.00) scale(0.0210 -0.0210)" d="M86 0V710H194V40L137 99H540V0Z" fill="#EEA93B"/>
  <path transform="translate(304.91 190.00) scale(0.0210 -0.0210)" d="M20 0 276 710H413L669 0H554L489 185H199L135 0ZM233 283H456L344 607Z" fill="#EEA93B"/>
  <path transform="translate(324.86 190.00) scale(0.0210 -0.0210)" d="M347 -16Q263 -16 200.5 16.5Q138 49 104.5 109.0Q71 169 71 251V710H179V251Q179 170 223.0 126.5Q267 83 347 83Q427 83 471.0 126.5Q515 170 515 251V710H623V251Q623 169 589.5 109.0Q556 49 494.0 16.5Q432 -16 347 -16Z" fill="#EEA93B"/>
  <path transform="translate(345.63 190.00) scale(0.0210 -0.0210)" d="M86 0V710H223L551 131V710H659V0H517L194 566V0Z" fill="#EEA93B"/>
  <path transform="translate(366.84 190.00) scale(0.0210 -0.0210)" d="M368 -16Q272 -16 199.0 28.5Q126 73 85.0 156.0Q44 239 44 354Q44 468 84.5 551.5Q125 635 198.0 680.5Q271 726 369 726Q501 726 574.0 660.0Q647 594 669 477L556 471Q542 544 496.0 585.5Q450 627 369 627Q304 627 256.5 594.0Q209 561 182.5 500.0Q156 439 156 354Q156 269 182.5 208.0Q209 147 257.0 115.0Q305 83 368 83Q454 83 501.5 128.5Q549 174 561 254L674 248Q661 167 622.0 108.0Q583 49 519.0 16.5Q455 -16 368 -16Z" fill="#EEA93B"/>
  <path transform="translate(387.65 190.00) scale(0.0210 -0.0210)" d="M86 0V710H194V368L142 406H574L522 368V710H630V0H522V346L574 308H142L194 346V0Z" fill="#EEA93B"/>
  <path transform="translate(408.19 190.00) scale(0.0210 -0.0210)" d="M86 0V710H548V611H194V404H536V308H194V99H556V0Z" fill="#EEA93B"/>
  <path transform="translate(426.69 190.00) scale(0.0210 -0.0210)" d="M86 0V710H369Q445 710 500.0 684.0Q555 658 585.0 610.0Q615 562 615 496Q615 448 593.5 410.0Q572 372 536.5 349.5Q501 327 461 324L456 333Q523 333 560.0 302.5Q597 272 603 207L622 0H513L496 193Q493 236 467.0 256.5Q441 277 382 277H194V0ZM194 376H371Q432 376 467.5 406.5Q503 437 503 493Q503 550 467.0 580.5Q431 611 362 611H194Z" fill="#EEA93B"/>
  <path transform="translate(104.00 292.00) scale(0.1120 -0.1120)" d="M80 0V710H355Q480 710 550.0 650.0Q620 590 620 484Q620 413 588.0 361.5Q556 310 497.0 283.0Q438 256 355 256H210V0ZM210 369H349Q415 369 450.5 398.0Q486 427 486 484Q486 540 450.5 568.5Q415 597 349 597H210Z" fill="#F2EDE3"/>
  <path transform="translate(172.99 292.00) scale(0.1120 -0.1120)" d="M302 -12Q223 -12 163.5 22.5Q104 57 71.5 120.0Q39 183 39 267Q39 352 71.5 414.5Q104 477 163.5 511.5Q223 546 302 546Q381 546 440.0 511.5Q499 477 531.5 414.5Q564 352 564 267Q564 183 531.5 120.0Q499 57 440.0 22.5Q381 -12 302 -12ZM302 92Q364 92 397.5 138.0Q431 184 431 267Q431 349 397.5 395.5Q364 442 302 442Q240 442 206.0 395.5Q172 349 172 267Q172 184 206.0 138.0Q240 92 302 92Z" fill="#F2EDE3"/>
  <path transform="translate(237.73 292.00) scale(0.1120 -0.1120)" d="M198 0Q140 0 105.0 30.0Q70 60 70 126V710H198V139Q198 119 208.5 109.0Q219 99 238 99H277V0Z" fill="#F2EDE3"/>
  <path transform="translate(265.39 292.00) scale(0.1120 -0.1120)" d="M108 -150V-51H176Q202 -51 214.5 -43.0Q227 -35 234 -16L249 21H212L21 534H154L288 141L416 534H549L340 -56Q322 -106 289.5 -128.0Q257 -150 199 -150Z" fill="#F2EDE3"/>
  <path transform="translate(324.53 292.00) scale(0.1120 -0.1120)" d="M70 0V534H186L190 403L178 409Q187 452 209.5 482.5Q232 513 264.5 529.5Q297 546 336 546Q404 546 446.0 507.5Q488 469 499 402H482Q491 449 513.0 480.5Q535 512 568.5 529.0Q602 546 644 546Q699 546 739.0 522.5Q779 499 800.5 454.0Q822 409 822 343V0H694V310Q694 376 671.5 409.0Q649 442 603 442Q572 442 550.0 426.0Q528 410 516.5 379.5Q505 349 505 306V0H386V306Q386 372 366.0 407.0Q346 442 297 442Q266 442 244.5 426.0Q223 410 210.5 379.5Q198 349 198 306V0Z" fill="#F2EDE3"/>
  <path transform="translate(420.74 292.00) scale(0.1120 -0.1120)" d="M301 -12Q221 -12 162.0 22.5Q103 57 71.0 120.0Q39 183 39 267Q39 351 71.0 413.5Q103 476 161.5 511.0Q220 546 298 546Q374 546 431.5 512.0Q489 478 520.0 414.0Q551 350 551 260V231H172Q176 161 210.5 125.5Q245 90 302 90Q345 90 373.5 109.5Q402 129 413 164L544 156Q522 78 457.5 33.0Q393 -12 301 -12ZM172 317H419Q415 382 382.0 413.5Q349 445 298 445Q247 445 213.5 412.0Q180 379 172 317Z" fill="#F2EDE3"/>
  <path transform="translate(483.57 292.00) scale(0.1120 -0.1120)" d="M70 0V534H190L195 386L184 388Q196 465 229.5 499.5Q263 534 321 534H370V424H320Q279 424 252.0 412.0Q225 400 211.5 374.5Q198 349 198 308V0Z" fill="#F2EDE3"/>
  <path transform="translate(524.22 292.00) scale(0.1120 -0.1120)" d="M70 0V534H198V0ZM68 605V719H201V605Z" fill="#F2EDE3"/>
  <path transform="translate(550.10 292.00) scale(0.1120 -0.1120)" d="M246 -12Q165 -12 117.5 41.5Q70 95 70 190V534H198V222Q198 155 220.5 123.5Q243 92 289 92Q341 92 369.5 126.5Q398 161 398 227V534H526V0H409L406 147L422 142Q410 66 365.0 27.0Q320 -12 246 -12Z" fill="#F2EDE3"/>
  <path transform="translate(614.72 292.00) scale(0.1120 -0.1120)" d="M70 0V534H186L190 403L178 409Q187 452 209.5 482.5Q232 513 264.5 529.5Q297 546 336 546Q404 546 446.0 507.5Q488 469 499 402H482Q491 449 513.0 480.5Q535 512 568.5 529.0Q602 546 644 546Q699 546 739.0 522.5Q779 499 800.5 454.0Q822 409 822 343V0H694V310Q694 376 671.5 409.0Q649 442 603 442Q572 442 550.0 426.0Q528 410 516.5 379.5Q505 349 505 306V0H386V306Q386 372 366.0 407.0Q346 442 297 442Q266 442 244.5 426.0Q223 410 210.5 379.5Q198 349 198 306V0Z" fill="#F2EDE3"/>
  <path transform="translate(712.38 292.00) scale(0.1120 -0.1120)" d="M39 0V140H185V0Z" fill="#EEA93B"/>
  <path transform="translate(104.00 384.00) scale(0.0380 -0.0380)" d="M538 107 574 162Q641 138 707.5 108.0Q774 78 832.0 46.5Q890 15 931 -15L885 -74Q845 -43 789.0 -11.0Q733 21 668.5 51.5Q604 82 538 107ZM429 824 503 847Q524 816 544.5 778.0Q565 740 574 713L496 687Q488 714 468.5 752.5Q449 791 429 824ZM90 726H912V523H834V656H165V523H90ZM503 606H581Q577 494 568.0 401.0Q559 308 534.0 232.5Q509 157 460.5 97.5Q412 38 330.0 -5.0Q248 -48 124 -77Q118 -62 105.5 -42.5Q93 -23 81 -11Q200 14 276.0 51.5Q352 89 397.0 142.0Q442 195 463.5 263.0Q485 331 492.5 416.5Q500 502 503 606ZM71 256H935V191H71ZM240 557 285 605Q313 590 341.0 571.0Q369 552 394.5 532.0Q420 512 435 494L387 440Q373 458 348.5 478.5Q324 499 296.0 520.0Q268 541 240 557ZM140 401 185 451Q213 437 243.0 418.0Q273 399 299.5 379.0Q326 359 342 341L296 284Q280 303 254.5 324.0Q229 345 199.0 365.5Q169 386 140 401Z" fill="#A39E93"/>
  <path transform="translate(142.00 384.00) scale(0.0380 -0.0380)" d="M297 785H645V714H297ZM411 757 482 746Q465 650 439.5 561.0Q414 472 381.5 395.0Q349 318 308 260Q302 266 291.5 274.5Q281 283 270.0 292.0Q259 301 250 306Q291 360 321.5 431.5Q352 503 374.5 586.5Q397 670 411 757ZM406 563H579V494H385ZM555 563H568L581 565L625 554Q599 314 523.5 157.0Q448 0 333 -81Q325 -67 311.5 -50.0Q298 -33 285 -23Q355 21 410.5 102.0Q466 183 503.5 296.0Q541 409 555 547ZM358 290 399 341Q422 326 447.5 306.0Q473 286 495.5 266.5Q518 247 532 232L489 173Q476 190 453.5 210.0Q431 230 406.5 251.5Q382 273 358 290ZM690 724H756V165H690ZM853 835H924V22Q924 -13 914.5 -31.0Q905 -49 883 -58Q861 -67 822.5 -70.0Q784 -73 727 -72Q724 -57 716.5 -35.5Q709 -14 701 2Q746 0 782.5 0.0Q819 0 831 0Q843 1 848.0 5.5Q853 10 853 22ZM212 839 280 820Q256 738 224.0 657.0Q192 576 153.5 503.5Q115 431 71 376Q68 384 61.0 399.0Q54 414 47.0 428.5Q40 443 33 453Q90 524 136.5 626.5Q183 729 212 839ZM142 582 211 651 212 650V-78H142Z" fill="#A39E93"/>
  <path transform="translate(180.00 384.00) scale(0.0380 -0.0380)" d="M59 399H943V332H59ZM503 220H878V154H503ZM471 369H546V-10H471ZM274 207Q305 125 358.5 83.0Q412 41 489.0 26.0Q566 11 664 11Q675 11 704.0 11.0Q733 11 770.5 11.0Q808 11 846.0 11.0Q884 11 915.5 11.0Q947 11 963 12Q957 3 951.5 -10.0Q946 -23 942.0 -36.5Q938 -50 935 -60H875H661Q573 -60 503.0 -50.0Q433 -40 378.0 -14.0Q323 12 282.5 60.0Q242 108 212 184ZM231 299 306 289Q282 164 228.5 71.0Q175 -22 92 -81Q87 -74 77.0 -64.0Q67 -54 55.5 -44.0Q44 -34 35 -29Q115 23 163.5 106.5Q212 190 231 299ZM236 607V525H757V607ZM236 742V661H757V742ZM164 799H833V468H164Z" fill="#A39E93"/>
  <path transform="translate(218.00 384.00) scale(0.0380 -0.0380)" d="M44 431H960V349H44Z" fill="#A39E93"/>
  <path transform="translate(256.00 384.00) scale(0.0380 -0.0380)" d="M259 836 331 815Q301 731 261.0 648.5Q221 566 174.5 493.0Q128 420 77 363Q73 372 65.5 386.0Q58 400 49.0 414.5Q40 429 33 437Q79 486 121.0 550.0Q163 614 198.5 687.5Q234 761 259 836ZM161 574 235 648 236 647V-80H161ZM503 814 577 798Q540 667 478.0 558.5Q416 450 330 377Q326 386 317.5 398.0Q309 410 299.5 423.0Q290 436 282 443Q361 505 417.0 601.5Q473 698 503 814ZM395 448H804V378H395ZM779 448H852Q852 448 852.0 442.0Q852 436 852.0 427.5Q852 419 851 414Q846 299 840.5 218.5Q835 138 828.0 86.0Q821 34 812.0 4.0Q803 -26 792 -39Q778 -56 762.5 -63.0Q747 -70 726 -72Q707 -74 675.0 -74.0Q643 -74 609 -72Q608 -56 602.5 -36.0Q597 -16 588 -2Q622 -5 651.0 -6.0Q680 -7 693 -7Q705 -7 713.0 -4.5Q721 -2 728 7Q739 20 748.0 64.5Q757 109 765.0 198.5Q773 288 779 434ZM525 401 599 397Q582 222 525.5 106.0Q469 -10 354 -81Q349 -74 340.0 -63.5Q331 -53 320.5 -42.5Q310 -32 302 -26Q411 34 461.5 140.0Q512 246 525 401ZM754 820Q776 732 805.0 665.5Q834 599 875.0 546.5Q916 494 972 449Q957 438 943.0 420.5Q929 403 920 386Q859 439 814.5 499.0Q770 559 739.5 634.5Q709 710 686 807Z" fill="#A39E93"/>
  <path transform="translate(294.00 384.00) scale(0.0380 -0.0380)" d="M747 747H825V28Q825 -12 813.5 -33.5Q802 -55 772 -65Q743 -75 690.5 -76.5Q638 -78 563 -78Q561 -67 555.5 -52.5Q550 -38 544.0 -23.0Q538 -8 532 3Q572 1 610.5 0.5Q649 0 677.5 0.0Q706 0 718 0Q734 2 740.5 7.5Q747 13 747 29ZM158 547H231V93H158ZM189 547H568V173H189V245H494V475H189ZM56 769H948V694H56Z" fill="#A39E93"/>
  <path transform="translate(332.00 384.00) scale(0.0380 -0.0380)" d="M68 182Q66 189 62.0 201.5Q58 214 53.5 227.0Q49 240 45 249Q61 252 77.5 270.0Q94 288 116 316Q127 330 148.5 361.5Q170 393 197.5 436.5Q225 480 252.5 530.5Q280 581 303 632L364 597Q329 529 288.5 461.0Q248 393 204.5 332.0Q161 271 117 221V219Q117 219 109.5 215.5Q102 212 92.0 206.5Q82 201 75.0 194.5Q68 188 68 182ZM68 182 63 242 97 267 334 317Q333 302 335.0 284.5Q337 267 339 255Q256 236 205.5 223.5Q155 211 128.0 203.5Q101 196 88.0 191.0Q75 186 68 182ZM61 423Q59 430 55.0 443.0Q51 456 46.5 469.0Q42 482 38 491Q51 495 63.5 511.5Q76 528 91 554Q99 567 114.0 595.5Q129 624 147.5 664.0Q166 704 183.5 749.5Q201 795 215 840L287 815Q263 751 233.5 687.5Q204 624 171.0 566.5Q138 509 105 463V461Q105 461 98.5 457.5Q92 454 83.0 447.5Q74 441 67.5 435.0Q61 429 61 423ZM61 423 59 479 95 501 268 519Q265 505 263.5 487.0Q262 469 262 457Q203 450 166.5 444.5Q130 439 109.0 435.5Q88 432 77.5 429.0Q67 426 61 423ZM40 54Q96 73 173.0 102.5Q250 132 332 163L346 103Q271 71 195.5 40.5Q120 10 58 -15ZM624 377H675V-47H624ZM746 378H797V-46H746ZM871 413H930V-7Q930 -28 926.0 -41.0Q922 -54 908 -62Q895 -69 876.5 -71.0Q858 -73 831 -73Q830 -60 825.0 -44.0Q820 -28 814 -16Q831 -17 843.5 -17.0Q856 -17 861 -17Q871 -16 871 -7ZM414 732H483V515Q483 454 479.0 380.0Q475 306 463.5 228.0Q452 150 430.0 75.0Q408 0 372 -63Q366 -57 355.0 -48.5Q344 -40 333.0 -32.0Q322 -24 314 -21Q348 39 368.5 108.5Q389 178 398.5 249.5Q408 321 411.0 389.5Q414 458 414 515ZM450 732H920V498H450V561H850V668H450ZM481 412H903V350H541V-72H481ZM512 202H898V143H512ZM605 826 675 846Q693 818 708.5 783.5Q724 749 732 723L658 698Q652 724 636.5 760.0Q621 796 605 826Z" fill="#A39E93"/>
  <path transform="translate(370.00 384.00) scale(0.0380 -0.0380)" d="M47 722H412V650H47ZM244 568H313V-76H244ZM40 167Q88 174 150.5 185.0Q213 196 282.5 208.5Q352 221 423 234L427 169Q329 148 231.0 128.5Q133 109 56 94ZM81 332Q79 339 75.0 351.5Q71 364 66.5 376.5Q62 389 58 398Q71 401 82.0 423.5Q93 446 105 479Q111 495 123.0 532.0Q135 569 148.5 619.5Q162 670 175.0 727.0Q188 784 196 840L269 825Q254 745 232.0 664.0Q210 583 184.0 508.5Q158 434 131 374V372Q131 372 123.5 368.0Q116 364 106.0 357.5Q96 351 88.5 344.0Q81 337 81 332ZM81 332V394L121 414H405V346H153Q128 346 107.5 342.0Q87 338 81 332ZM815 517H885V-80H815ZM551 751V650H819V751ZM482 808H892V594H482ZM423 535H953V472H423ZM523 386H835V329H523ZM523 242H838V185H523ZM491 519H560V61L491 53ZM400 76Q468 80 559.0 86.0Q650 92 753.5 99.5Q857 107 960 115L959 52Q861 44 761.5 36.0Q662 28 572.0 21.0Q482 14 412 8Z" fill="#A39E93"/>
  <path transform="translate(408.00 384.00) scale(0.0380 -0.0380)" d="M131 679H435V25H131V93H366V612H131ZM87 679H156V-54H87ZM126 401H402V335H126ZM240 842 321 828Q306 781 288.5 733.0Q271 685 256 651L195 666Q204 691 212.5 722.0Q221 753 228.5 785.0Q236 817 240 842ZM578 682H885V613H578ZM858 682H929Q929 682 929.0 675.0Q929 668 929.0 658.5Q929 649 928 644Q922 472 916.5 353.0Q911 234 903.0 158.5Q895 83 884.5 41.0Q874 -1 859 -19Q842 -41 823.5 -49.5Q805 -58 778 -61Q753 -63 712.5 -62.5Q672 -62 629 -59Q628 -43 621.5 -22.0Q615 -1 604 13Q654 9 694.5 8.0Q735 7 753 7Q768 7 777.5 10.5Q787 14 796 24Q808 37 817.5 77.5Q827 118 834.0 193.0Q841 268 847.0 384.5Q853 501 858 666ZM598 844 670 828Q652 753 626.5 681.5Q601 610 570.5 547.0Q540 484 506 436Q499 442 487.5 450.5Q476 459 464.0 466.5Q452 474 443 479Q478 524 507.0 582.5Q536 641 559.0 708.0Q582 775 598 844ZM552 423 611 456Q639 421 669.5 379.0Q700 337 726.5 298.0Q753 259 769 229L705 189Q690 220 664.5 260.5Q639 301 609.5 343.5Q580 386 552 423Z" fill="#A39E93"/>
  <path transform="translate(446.00 384.00) scale(0.0380 -0.0380)" d="M592 481H892V408H592ZM557 481H631V46Q631 18 641.0 9.5Q651 1 686 1Q694 1 715.0 1.0Q736 1 761.0 1.0Q786 1 808.5 1.0Q831 1 841 1Q864 1 875.0 14.0Q886 27 891.0 63.0Q896 99 898 171Q908 165 920.0 158.0Q932 151 945.0 146.5Q958 142 968 139Q963 58 952.0 12.5Q941 -33 916.5 -51.5Q892 -70 846 -70Q840 -70 823.0 -70.0Q806 -70 783.5 -70.0Q761 -70 739.0 -70.0Q717 -70 700.5 -70.0Q684 -70 678 -70Q632 -70 605.5 -60.0Q579 -50 568.0 -25.0Q557 0 557 46ZM554 795H930V340H858V723H554ZM82 618H482V-62H420V553H143V-76H82ZM113 214H450V158H113ZM113 54H450V-7H113ZM57 801H505V734H57ZM201 783H255V571H201ZM314 783H369V571H314ZM211 572H253V473Q253 442 247.0 407.0Q241 372 224.5 337.5Q208 303 176 274Q171 281 160.5 290.0Q150 299 143 304Q172 329 186.5 358.5Q201 388 206.0 418.0Q211 448 211 474ZM309 572H352V365Q352 356 354.0 353.0Q356 350 365 350Q368 350 375.0 350.0Q382 350 390.0 350.0Q398 350 402 350Q415 350 417 353Q424 348 435.0 343.5Q446 339 456 336Q453 321 442.0 314.0Q431 307 410 307Q406 307 395.5 307.0Q385 307 375.0 307.0Q365 307 361 307Q331 307 320.0 317.5Q309 328 309 364Z" fill="#A39E93"/>
  <path transform="translate(484.00 384.00) scale(0.0380 -0.0380)" d="M651 748V658H820V748ZM417 748V658H582V748ZM189 748V658H348V748ZM117 802H895V603H117ZM68 545H922V486H68ZM456 622 533 617Q525 565 512.5 506.5Q500 448 490 405H419Q426 434 433.0 471.5Q440 509 446.0 548.5Q452 588 456 622ZM57 6H945V-50H57ZM226 320H771V275H226ZM230 217H769V172H230ZM234 113H773V68H234ZM190 427H808V-25H734V376H262V-25H190Z" fill="#A39E93"/>
  <path transform="translate(522.00 384.00) scale(0.0380 -0.0380)" d="M157 -107 135 -54Q196 -29 228.5 10.0Q261 49 261 106L243 190L297 114Q286 101 272.0 96.5Q258 92 244 92Q213 92 191.0 110.0Q169 128 169 163Q169 199 191.5 217.0Q214 235 245 235Q287 235 308.5 203.5Q330 172 330 120Q330 39 283.0 -20.0Q236 -79 157 -107Z" fill="#A39E93"/>
  <path transform="translate(104.00 442.00) scale(0.0380 -0.0380)" d="M69 770H931V693H69ZM559 478 615 526Q659 497 708.0 463.5Q757 430 804.0 394.0Q851 358 891.5 324.0Q932 290 960 261L899 203Q872 232 832.5 267.5Q793 303 747.0 340.0Q701 377 652.5 412.5Q604 448 559 478ZM541 743 622 714Q566 611 486.0 513.0Q406 415 307.5 332.0Q209 249 95 189Q90 199 80.5 211.0Q71 223 61.5 235.0Q52 247 44 255Q126 296 200.5 350.5Q275 405 339.0 469.5Q403 534 454.5 603.5Q506 673 541 743ZM459 544 540 624V623V-78H459Z" fill="#A39E93"/>
  <path transform="translate(142.00 442.00) scale(0.0380 -0.0380)" d="M59 399H943V332H59ZM503 220H878V154H503ZM471 369H546V-10H471ZM274 207Q305 125 358.5 83.0Q412 41 489.0 26.0Q566 11 664 11Q675 11 704.0 11.0Q733 11 770.5 11.0Q808 11 846.0 11.0Q884 11 915.5 11.0Q947 11 963 12Q957 3 951.5 -10.0Q946 -23 942.0 -36.5Q938 -50 935 -60H875H661Q573 -60 503.0 -50.0Q433 -40 378.0 -14.0Q323 12 282.5 60.0Q242 108 212 184ZM231 299 306 289Q282 164 228.5 71.0Q175 -22 92 -81Q87 -74 77.0 -64.0Q67 -54 55.5 -44.0Q44 -34 35 -29Q115 23 163.5 106.5Q212 190 231 299ZM236 607V525H757V607ZM236 742V661H757V742ZM164 799H833V468H164Z" fill="#A39E93"/>
  <path transform="translate(180.00 442.00) scale(0.0380 -0.0380)" d="M44 431H960V349H44Z" fill="#A39E93"/>
  <path transform="translate(218.00 442.00) scale(0.0380 -0.0380)" d="M482 464H913V396H482ZM482 267H913V199H482ZM480 62H951V-8H480ZM679 635H750V24H679ZM513 659H939V591H513V-81H442V612L487 659ZM523 835 597 815Q573 749 540.0 678.0Q507 607 466.0 541.5Q425 476 378 425Q372 433 364.0 443.5Q356 454 347.5 464.0Q339 474 332 481Q375 527 411.5 587.5Q448 648 476.5 712.5Q505 777 523 835ZM650 806 714 832Q736 798 756.0 757.5Q776 717 786 687L719 657Q710 688 690.5 730.0Q671 772 650 806ZM42 599H362V528H42ZM170 828H242V179H170ZM34 156Q75 171 129.0 193.0Q183 215 243.0 240.0Q303 265 364 290L380 223Q298 185 214.5 148.0Q131 111 64 81Z" fill="#A39E93"/>
  <path transform="translate(256.00 442.00) scale(0.0380 -0.0380)" d="M288 442V374H753V442ZM288 559V493H753V559ZM213 614H831V319H213ZM267 840 335 819Q308 764 269.5 711.0Q231 658 186.5 612.0Q142 566 96 530Q92 538 83.0 549.5Q74 561 65.0 572.5Q56 584 48 590Q112 635 172.0 700.5Q232 766 267 840ZM249 743H903V680H217ZM340 340 405 317Q374 270 331.5 225.5Q289 181 241.5 144.0Q194 107 147 78Q141 84 131.5 93.5Q122 103 111.5 112.0Q101 121 93 127Q164 164 231.0 220.5Q298 277 340 340ZM298 255H765V197H250ZM743 255H759L771 259L818 228Q766 154 684.0 101.0Q602 48 500.0 11.5Q398 -25 285.5 -47.0Q173 -69 62 -80Q60 -66 51.0 -46.0Q42 -26 33 -13Q140 -5 247.5 14.0Q355 33 451.5 64.0Q548 95 623.5 140.0Q699 185 743 245ZM299 219Q344 167 412.0 127.5Q480 88 566.5 61.0Q653 34 753.5 17.0Q854 0 963 -6Q951 -19 939.5 -38.5Q928 -58 920 -72Q812 -63 711.5 -43.0Q611 -23 523.0 9.5Q435 42 364.0 88.0Q293 134 243 196Z" fill="#A39E93"/>
  <path transform="translate(294.00 442.00) scale(0.0380 -0.0380)" d="M676 748H747V194H676ZM854 830H928V24Q928 -13 918.0 -32.0Q908 -51 885 -62Q862 -71 821.5 -73.5Q781 -76 725 -76Q722 -60 715.0 -37.5Q708 -15 700 3Q745 2 782.5 1.5Q820 1 834 2Q845 2 849.5 6.5Q854 11 854 23ZM289 836H361V-79H289ZM500 351H569V77Q569 51 563.0 35.5Q557 20 538 11Q521 3 491.5 1.0Q462 -1 421 -1Q419 14 413.0 32.5Q407 51 400 65Q432 64 455.0 64.0Q478 64 486 64Q500 64 500 78ZM91 351H528V283H159V2H91ZM45 522H604V453H45ZM141 696H565V627H127ZM142 816 212 802Q194 724 166.5 649.5Q139 575 108 524Q100 528 88.0 533.5Q76 539 63.5 544.0Q51 549 41 552Q76 603 101.0 673.5Q126 744 142 816Z" fill="#A39E93"/>
  <path transform="translate(332.00 442.00) scale(0.0380 -0.0380)" d="M131 679H435V25H131V93H366V612H131ZM87 679H156V-54H87ZM126 401H402V335H126ZM240 842 321 828Q306 781 288.5 733.0Q271 685 256 651L195 666Q204 691 212.5 722.0Q221 753 228.5 785.0Q236 817 240 842ZM578 682H885V613H578ZM858 682H929Q929 682 929.0 675.0Q929 668 929.0 658.5Q929 649 928 644Q922 472 916.5 353.0Q911 234 903.0 158.5Q895 83 884.5 41.0Q874 -1 859 -19Q842 -41 823.5 -49.5Q805 -58 778 -61Q753 -63 712.5 -62.5Q672 -62 629 -59Q628 -43 621.5 -22.0Q615 -1 604 13Q654 9 694.5 8.0Q735 7 753 7Q768 7 777.5 10.5Q787 14 796 24Q808 37 817.5 77.5Q827 118 834.0 193.0Q841 268 847.0 384.5Q853 501 858 666ZM598 844 670 828Q652 753 626.5 681.5Q601 610 570.5 547.0Q540 484 506 436Q499 442 487.5 450.5Q476 459 464.0 466.5Q452 474 443 479Q478 524 507.0 582.5Q536 641 559.0 708.0Q582 775 598 844ZM552 423 611 456Q639 421 669.5 379.0Q700 337 726.5 298.0Q753 259 769 229L705 189Q690 220 664.5 260.5Q639 301 609.5 343.5Q580 386 552 423Z" fill="#A39E93"/>
  <path transform="translate(370.00 442.00) scale(0.0380 -0.0380)" d="M725 630 802 607Q739 426 640.0 294.0Q541 162 403.0 71.5Q265 -19 83 -78Q79 -69 71.0 -55.5Q63 -42 53.5 -28.5Q44 -15 36 -7Q215 45 348.5 128.5Q482 212 575.0 335.5Q668 459 725 630ZM270 626Q327 471 424.0 345.0Q521 219 657.0 129.5Q793 40 967 -4Q959 -12 949.0 -24.5Q939 -37 930.5 -49.5Q922 -62 915 -73Q736 -24 599.0 70.5Q462 165 363.5 300.0Q265 435 201 603ZM50 664H954V590H50ZM423 823 501 847Q524 811 546.5 767.5Q569 724 580 693L497 666Q488 697 467.0 741.5Q446 786 423 823Z" fill="#A39E93"/>
  <path transform="translate(408.00 442.00) scale(0.0380 -0.0380)" d="M604 828H679V-80H604ZM432 790 504 775Q490 706 470.5 638.5Q451 571 426.5 513.0Q402 455 373 409Q366 415 354.5 422.0Q343 429 330.5 436.0Q318 443 309 447Q338 488 361.5 543.5Q385 599 403.0 662.0Q421 725 432 790ZM441 635H909V562H423ZM317 341H953V267H317ZM268 836 339 815Q307 730 265.5 647.5Q224 565 175.5 492.5Q127 420 75 363Q71 372 63.5 386.0Q56 400 47.5 414.5Q39 429 32 437Q79 486 122.5 550.0Q166 614 203.5 687.5Q241 761 268 836ZM167 579 238 650 239 649V-78H167Z" fill="#A39E93"/>
  <path transform="translate(446.00 442.00) scale(0.0380 -0.0380)" d="M194 244Q237 244 271.0 223.5Q305 203 326.0 168.5Q347 134 347 92Q347 50 326.0 15.5Q305 -19 271.0 -40.0Q237 -61 194 -61Q152 -61 117.5 -40.0Q83 -19 62.5 15.5Q42 50 42 92Q42 134 62.5 168.5Q83 203 118.0 223.5Q153 244 194 244ZM194 -10Q237 -10 266.5 19.5Q296 49 296 92Q296 119 282.5 142.0Q269 165 246.0 179.0Q223 193 194 193Q167 193 144.0 179.0Q121 165 107.0 142.0Q93 119 93 92Q93 64 107.0 40.5Q121 17 144.0 3.5Q167 -10 194 -10Z" fill="#A39E93"/>
</svg>
